<mxfile host="65bd71144e">
    <diagram id="YfLQU_7pIsObFUvdrNqj" name="Page-1">
        <mxGraphModel dx="1591" dy="929" grid="1" gridSize="10" guides="1" tooltips="1" connect="1" arrows="1" fold="1" page="1" pageScale="1" pageWidth="827" pageHeight="1169" math="0" shadow="0">
            <root>
                <mxCell id="0"/>
                <mxCell id="1" parent="0"/>
                <mxCell id="68" value="Moving State Machine" style="swimlane;fontSize=20;fillColor=#0050ef;fontColor=#ffffff;strokeColor=#0050ef;strokeWidth=7;" parent="1" vertex="1">
                    <mxGeometry x="50" y="570" width="260" height="250" as="geometry"/>
                </mxCell>
                <mxCell id="70" value="Stand" style="rounded=1;whiteSpace=wrap;html=1;fontSize=24;fillColor=#1ba1e2;fontColor=#ffffff;strokeColor=#006EAF;" parent="68" vertex="1">
                    <mxGeometry x="70" y="45" width="120" height="60" as="geometry"/>
                </mxCell>
                <mxCell id="73" value="Jump State Machine" style="swimlane;fontSize=20;fillColor=#0050ef;fontColor=#ffffff;strokeColor=#0050ef;strokeWidth=7;" vertex="1" parent="1">
                    <mxGeometry x="340" y="570" width="590" height="250" as="geometry"/>
                </mxCell>
                <mxCell id="78" style="edgeStyle=none;html=1;exitX=0.5;exitY=1;exitDx=0;exitDy=0;entryX=0.5;entryY=0;entryDx=0;entryDy=0;fillColor=#60a917;strokeColor=#2D7600;strokeWidth=7;" edge="1" parent="73" source="74" target="110">
                    <mxGeometry relative="1" as="geometry">
                        <mxPoint x="-160" y="115" as="sourcePoint"/>
                        <mxPoint x="95" y="144.99999999999977" as="targetPoint"/>
                    </mxGeometry>
                </mxCell>
                <mxCell id="74" value="Enter" style="rounded=1;whiteSpace=wrap;html=1;fontSize=24;fillColor=#1ba1e2;fontColor=#ffffff;strokeColor=#006EAF;" vertex="1" parent="73">
                    <mxGeometry x="235" y="45" width="120" height="60" as="geometry"/>
                </mxCell>
                <mxCell id="80" style="edgeStyle=none;html=1;exitX=0.5;exitY=1;exitDx=0;exitDy=0;entryX=0.5;entryY=0;entryDx=0;entryDy=0;fillColor=#60a917;strokeColor=#2D7600;strokeWidth=7;" edge="1" parent="73" source="74" target="108">
                    <mxGeometry relative="1" as="geometry">
                        <mxPoint x="315" y="125" as="sourcePoint"/>
                        <mxPoint x="495" y="144.99999999999977" as="targetPoint"/>
                    </mxGeometry>
                </mxCell>
                <mxCell id="79" style="edgeStyle=none;html=1;entryX=0.5;entryY=0;entryDx=0;entryDy=0;fillColor=#60a917;strokeColor=#2D7600;strokeWidth=7;exitX=0.5;exitY=1;exitDx=0;exitDy=0;" edge="1" parent="73" source="74" target="39">
                    <mxGeometry relative="1" as="geometry">
                        <mxPoint x="335" y="100" as="sourcePoint"/>
                        <mxPoint x="145" y="155" as="targetPoint"/>
                    </mxGeometry>
                </mxCell>
                <mxCell id="39" value="RunJumpLeft" style="rounded=1;whiteSpace=wrap;html=1;fontSize=24;fillColor=#1ba1e2;fontColor=#ffffff;strokeColor=#006EAF;" vertex="1" parent="73">
                    <mxGeometry x="210" y="169" width="170" height="60" as="geometry"/>
                </mxCell>
                <mxCell id="108" value="RunJumpRight" style="rounded=1;whiteSpace=wrap;html=1;fontSize=24;fillColor=#1ba1e2;fontColor=#ffffff;strokeColor=#006EAF;" vertex="1" parent="73">
                    <mxGeometry x="410" y="169" width="170" height="60" as="geometry"/>
                </mxCell>
                <mxCell id="109" value="Moving" style="rounded=1;whiteSpace=wrap;html=1;fontSize=24;fillColor=#1ba1e2;fontColor=#ffffff;strokeColor=#006EAF;" vertex="1" parent="73">
                    <mxGeometry x="-220" y="169" width="120" height="60" as="geometry"/>
                </mxCell>
                <mxCell id="110" value="StandJump" style="rounded=1;whiteSpace=wrap;html=1;fontSize=24;fillColor=#1ba1e2;fontColor=#ffffff;strokeColor=#006EAF;" vertex="1" parent="73">
                    <mxGeometry x="10" y="169" width="170" height="60" as="geometry"/>
                </mxCell>
                <mxCell id="81" value="Fall State Machine" style="swimlane;fontSize=20;fillColor=#0050ef;fontColor=#ffffff;strokeColor=#0050ef;strokeWidth=7;" parent="1" vertex="1">
                    <mxGeometry x="960" y="570" width="500" height="250" as="geometry"/>
                </mxCell>
                <mxCell id="84" style="edgeStyle=none;html=1;exitX=1;exitY=0.5;exitDx=0;exitDy=0;entryX=0;entryY=0.5;entryDx=0;entryDy=0;fillColor=#60a917;strokeColor=#2D7600;strokeWidth=7;" parent="81" source="46" target="47" edge="1">
                    <mxGeometry relative="1" as="geometry">
                        <mxPoint x="295" y="105" as="sourcePoint"/>
                        <mxPoint x="495" y="145" as="targetPoint"/>
                    </mxGeometry>
                </mxCell>
                <mxCell id="46" value="Loop" style="rounded=1;whiteSpace=wrap;html=1;fontSize=24;fillColor=#1ba1e2;fontColor=#ffffff;strokeColor=#006EAF;" parent="81" vertex="1">
                    <mxGeometry x="50" y="60" width="120" height="60" as="geometry"/>
                </mxCell>
                <mxCell id="47" value="Loop 2" style="rounded=1;whiteSpace=wrap;html=1;fontSize=24;fillColor=#1ba1e2;fontColor=#ffffff;strokeColor=#006EAF;" parent="81" vertex="1">
                    <mxGeometry x="220" y="60" width="120" height="60" as="geometry"/>
                </mxCell>
                <mxCell id="52" value="Land 1" style="rounded=1;whiteSpace=wrap;html=1;fontSize=24;fillColor=#1ba1e2;fontColor=#ffffff;strokeColor=#006EAF;" parent="81" vertex="1">
                    <mxGeometry x="155" y="170" width="120" height="60" as="geometry"/>
                </mxCell>
                <mxCell id="53" value="Land 2" style="rounded=1;whiteSpace=wrap;html=1;fontSize=24;fillColor=#1ba1e2;fontColor=#ffffff;strokeColor=#006EAF;" parent="81" vertex="1">
                    <mxGeometry x="325" y="170" width="120" height="60" as="geometry"/>
                </mxCell>
                <mxCell id="89" style="edgeStyle=none;html=1;exitX=0.5;exitY=1;exitDx=0;exitDy=0;entryX=0.5;entryY=0;entryDx=0;entryDy=0;fillColor=#60a917;strokeColor=#2D7600;strokeWidth=7;" parent="81" source="46" target="52" edge="1">
                    <mxGeometry relative="1" as="geometry">
                        <mxPoint x="180" y="100" as="sourcePoint"/>
                        <mxPoint x="264" y="100" as="targetPoint"/>
                    </mxGeometry>
                </mxCell>
                <mxCell id="90" style="edgeStyle=none;html=1;exitX=0.5;exitY=1;exitDx=0;exitDy=0;entryX=0.5;entryY=0;entryDx=0;entryDy=0;fillColor=#60a917;strokeColor=#2D7600;strokeWidth=7;" parent="81" source="47" target="53" edge="1">
                    <mxGeometry relative="1" as="geometry">
                        <mxPoint x="343" y="124.5" as="sourcePoint"/>
                        <mxPoint x="427" y="124.5" as="targetPoint"/>
                    </mxGeometry>
                </mxCell>
                <mxCell id="91" value="Movement State Machine" style="swimlane;fontSize=20;fillColor=#0050ef;fontColor=#ffffff;strokeColor=#0050ef;strokeWidth=7;" parent="1" vertex="1">
                    <mxGeometry x="50" y="270" width="1410" height="280" as="geometry"/>
                </mxCell>
                <mxCell id="94" value="Moving State Machine" style="rounded=1;whiteSpace=wrap;html=1;fontSize=24;fillColor=#60a917;fontColor=#ffffff;strokeColor=#2D7600;" parent="91" vertex="1">
                    <mxGeometry x="245" y="50" width="400" height="60" as="geometry"/>
                </mxCell>
                <mxCell id="100" value="Jump State Machine" style="rounded=1;whiteSpace=wrap;html=1;fontSize=24;fillColor=#60a917;fontColor=#ffffff;strokeColor=#2D7600;" parent="91" vertex="1">
                    <mxGeometry x="245" y="200" width="400" height="60" as="geometry"/>
                </mxCell>
                <mxCell id="102" style="edgeStyle=none;html=1;exitX=0.5;exitY=1;exitDx=0;exitDy=0;entryX=0.5;entryY=0;entryDx=0;entryDy=0;fillColor=#f0a30a;strokeColor=#BD7000;strokeWidth=7;" parent="91" source="94" target="100" edge="1">
                    <mxGeometry relative="1" as="geometry">
                        <mxPoint x="770" y="495" as="sourcePoint"/>
                        <mxPoint x="570" y="535" as="targetPoint"/>
                    </mxGeometry>
                </mxCell>
                <mxCell id="103" style="edgeStyle=none;html=1;exitX=1;exitY=0.5;exitDx=0;exitDy=0;entryX=0.5;entryY=1;entryDx=0;entryDy=0;fillColor=#f0a30a;strokeColor=#BD7000;strokeWidth=7;" parent="91" source="100" target="101" edge="1">
                    <mxGeometry relative="1" as="geometry">
                        <mxPoint x="455" y="110" as="sourcePoint"/>
                        <mxPoint x="455" y="200" as="targetPoint"/>
                    </mxGeometry>
                </mxCell>
                <mxCell id="104" style="edgeStyle=none;html=1;exitX=1;exitY=0.75;exitDx=0;exitDy=0;entryX=0.25;entryY=0;entryDx=0;entryDy=0;fillColor=#f0a30a;strokeColor=#BD7000;strokeWidth=7;" parent="91" source="94" target="101" edge="1">
                    <mxGeometry relative="1" as="geometry">
                        <mxPoint x="455" y="110" as="sourcePoint"/>
                        <mxPoint x="455" y="200" as="targetPoint"/>
                    </mxGeometry>
                </mxCell>
                <mxCell id="105" style="edgeStyle=none;html=1;exitX=0.5;exitY=0;exitDx=0;exitDy=0;entryX=1;entryY=0.25;entryDx=0;entryDy=0;fillColor=#f0a30a;strokeColor=#BD7000;strokeWidth=7;" parent="91" source="101" target="94" edge="1">
                    <mxGeometry relative="1" as="geometry">
                        <mxPoint x="655" y="230" as="sourcePoint"/>
                        <mxPoint x="975" y="190" as="targetPoint"/>
                    </mxGeometry>
                </mxCell>
                <mxCell id="101" value="Fall State Machine" style="rounded=1;whiteSpace=wrap;html=1;fontSize=24;fillColor=#60a917;fontColor=#ffffff;strokeColor=#2D7600;" parent="91" vertex="1">
                    <mxGeometry x="765" y="130" width="400" height="60" as="geometry"/>
                </mxCell>
                <mxCell id="71" style="edgeStyle=none;html=1;exitX=0.25;exitY=0;exitDx=0;exitDy=0;entryX=0.25;entryY=1;entryDx=0;entryDy=0;fillColor=#60a917;strokeColor=#2D7600;strokeWidth=7;" parent="1" source="109" target="70" edge="1">
                    <mxGeometry relative="1" as="geometry">
                        <mxPoint x="150" y="714.9999999999998" as="sourcePoint"/>
                    </mxGeometry>
                </mxCell>
                <mxCell id="69" style="edgeStyle=none;html=1;exitX=0.75;exitY=1;exitDx=0;exitDy=0;entryX=0.75;entryY=0;entryDx=0;entryDy=0;fillColor=#60a917;strokeColor=#2D7600;strokeWidth=7;" parent="1" source="70" target="109" edge="1">
                    <mxGeometry relative="1" as="geometry">
                        <mxPoint x="210" y="714.9999999999998" as="targetPoint"/>
                    </mxGeometry>
                </mxCell>
            </root>
        </mxGraphModel>
    </diagram>
</mxfile>